<svg width="17" height="16" viewBox="0 0 17 16" fill="none" xmlns="http://www.w3.org/2000/svg">
<g id="Frame">
<path id="Vector" d="M2.49993 5.49994C2.49986 4.91982 2.64399 4.34877 2.91936 3.83816C3.19473 3.32755 3.5927 2.8934 4.07748 2.57476C4.56226 2.25611 5.11865 2.06296 5.69659 2.01268C6.27454 1.9624 6.85591 2.05657 7.38844 2.28672C7.92096 2.51686 8.38792 2.87577 8.74733 3.33115C9.10674 3.78654 9.34732 4.32412 9.44742 4.89554C9.54753 5.46697 9.50403 6.05431 9.32084 6.60476C9.13764 7.1552 8.8205 7.65147 8.39793 8.04894C9.19474 8.4356 9.88655 9.0087 10.4147 9.71965C10.9429 10.4306 11.2918 11.2584 11.4319 12.1329C11.4474 12.2303 11.4435 12.3296 11.4205 12.4255C11.3975 12.5213 11.3559 12.6116 11.298 12.6913C11.2401 12.771 11.1671 12.8386 11.0831 12.8901C10.9991 12.9416 10.9057 12.976 10.8084 12.9914C10.7111 13.0069 10.6117 13.003 10.5159 12.98C10.4201 12.957 10.3298 12.9154 10.25 12.8575C10.1703 12.7996 10.1028 12.7266 10.0513 12.6426C9.99981 12.5586 9.96536 12.4653 9.94993 12.3679C9.79994 11.4283 9.31986 10.5728 8.5959 9.95524C7.87193 9.33767 6.95152 8.99842 5.99993 8.99842C5.04834 8.99842 4.12793 9.33767 3.40396 9.95524C2.68 10.5728 2.19992 11.4283 2.04993 12.3679C2.03443 12.4653 1.99992 12.5586 1.94837 12.6425C1.89681 12.7265 1.82922 12.7995 1.74946 12.8573C1.66969 12.9152 1.57931 12.9568 1.48348 12.9797C1.38765 13.0026 1.28824 13.0064 1.19093 12.9909C1.09362 12.9754 1.00032 12.9409 0.916344 12.8894C0.832372 12.8378 0.759377 12.7702 0.701526 12.6905C0.643675 12.6107 0.602101 12.5203 0.579179 12.4245C0.556257 12.3287 0.552434 12.2293 0.56793 12.1319C0.708265 11.2578 1.05731 10.4303 1.58546 9.71971C2.11362 9.00911 2.80532 8.43634 3.60193 8.04994C3.2536 7.72287 2.97608 7.32782 2.78653 6.8892C2.59698 6.45059 2.49944 5.97776 2.49993 5.49994ZM11.4999 3.99994C12.0809 4.00035 12.6493 4.16941 13.1361 4.48659C13.6229 4.80378 14.0072 5.25545 14.2423 5.78679C14.4773 6.31813 14.5531 6.90628 14.4604 7.47984C14.3677 8.05341 14.1104 8.58773 13.7199 9.01794C14.3286 9.32013 14.8694 9.74298 15.3095 10.2608C15.7496 10.7786 16.0798 11.3805 16.2799 12.0299C16.3196 12.156 16.3251 12.2903 16.2961 12.4192C16.267 12.5482 16.2044 12.6671 16.1145 12.764C16.0246 12.8609 15.9107 12.9323 15.7844 12.9709C15.658 13.0095 15.5236 13.014 15.3949 12.9839C15.2664 12.954 15.1479 12.8907 15.0516 12.8005C14.9552 12.7103 14.8843 12.5963 14.8459 12.4699C14.6667 11.8902 14.3401 11.3668 13.898 10.951C13.456 10.5353 12.9136 10.2413 12.3239 10.0979C12.1602 10.0584 12.0145 9.9649 11.9104 9.83247C11.8062 9.70004 11.7497 9.53641 11.7499 9.36794V9.01594C11.7498 8.87631 11.7887 8.73943 11.8622 8.6207C11.9357 8.50198 12.0409 8.40613 12.1659 8.34394C12.4691 8.1937 12.7126 7.94537 12.8568 7.63929C13.001 7.33321 13.0375 6.98737 12.9603 6.65793C12.8832 6.32849 12.6969 6.03481 12.4318 5.82459C12.1667 5.61437 11.8383 5.49996 11.4999 5.49994C11.301 5.49994 11.1103 5.42093 10.9696 5.28027C10.8289 5.13962 10.7499 4.94886 10.7499 4.74994C10.7499 4.55103 10.8289 4.36027 10.9696 4.21961C11.1103 4.07896 11.301 3.99994 11.4999 3.99994ZM5.99993 3.49994C5.73359 3.49392 5.46873 3.54117 5.22091 3.63891C4.97308 3.73666 4.74728 3.88293 4.55676 4.06915C4.36624 4.25536 4.21484 4.47776 4.11146 4.72329C4.00807 4.96882 3.95478 5.23252 3.95471 5.49893C3.95465 5.76534 4.00781 6.02907 4.11107 6.27465C4.21433 6.52024 4.36562 6.74271 4.55604 6.92902C4.74647 7.11533 4.9722 7.26171 5.21998 7.35958C5.46775 7.45745 5.73259 7.50483 5.99893 7.49894C6.52149 7.48739 7.01877 7.27172 7.3843 6.8981C7.74984 6.52449 7.95458 6.02262 7.95471 5.49993C7.95485 4.97724 7.75035 4.47527 7.385 4.10147C7.01965 3.72768 6.52249 3.51176 5.99993 3.49994Z" fill="#8B949E"/>
</g>
</svg>
