<svg width="24" height="26" viewBox="0 0 24 26" fill="none" xmlns="http://www.w3.org/2000/svg">
<g id="Group">
<path id="Vector" d="M21.3333 25.1667H19.385C18.7662 25.1667 18.1727 24.9208 17.7351 24.4833C17.2975 24.0457 17.0517 23.4522 17.0517 22.8333V16.5683C17.0621 16.3226 16.9878 16.0808 16.8413 15.8833C16.6948 15.6858 16.4848 15.5446 16.2467 15.4833C16.1081 15.4622 15.9666 15.4711 15.8318 15.5093C15.6969 15.5476 15.5719 15.6143 15.465 15.705C15.355 15.7983 15.2667 15.9146 15.2063 16.0455C15.1458 16.1765 15.1147 16.3191 15.115 16.4633V22.8333C15.115 23.4522 14.8692 24.0457 14.4316 24.4833C13.994 24.9208 13.4005 25.1667 12.7817 25.1667H10.8333C10.2145 25.1667 9.621 24.9208 9.18342 24.4833C8.74583 24.0457 8.5 23.4522 8.5 22.8333V16.4633C8.5 15.4675 8.69615 14.4814 9.07725 13.5613C9.45835 12.6413 10.0169 11.8053 10.7211 11.1011C11.4253 10.3969 12.2613 9.83835 13.1813 9.45725C14.1014 9.07615 15.0875 8.88 16.0833 8.88C17.0792 8.88 18.0653 9.07615 18.9853 9.45725C19.9054 9.83835 20.7414 10.3969 21.4456 11.1011C22.1497 11.8053 22.7083 12.6413 23.0894 13.5613C23.4705 14.4814 23.6667 15.4675 23.6667 16.4633V22.8333C23.6667 23.4522 23.4208 24.0457 22.9832 24.4833C22.5457 24.9208 21.9522 25.1667 21.3333 25.1667ZM16.0833 13.1383C16.2659 13.1268 16.4491 13.1268 16.6317 13.1383C17.4149 13.289 18.1201 13.7106 18.6236 14.3293C19.1271 14.948 19.3966 15.7241 19.385 16.5217V22.8333H21.3333V16.4633C21.3333 15.071 20.7802 13.7356 19.7956 12.751C18.8111 11.7665 17.4757 11.2133 16.0833 11.2133C14.6909 11.2133 13.3556 11.7665 12.371 12.751C11.3865 13.7356 10.8333 15.071 10.8333 16.4633V22.8333H12.7817V16.4633C12.7816 15.5855 13.1288 14.7433 13.7473 14.1204C14.3658 13.4975 15.2055 13.1445 16.0833 13.1383Z" fill="white"/>
<path id="Vector_2" d="M5.00004 25.1666H2.66671C2.04787 25.1666 1.45438 24.9208 1.01679 24.4832C0.579207 24.0456 0.333374 23.4521 0.333374 22.8333V11.1666C0.333374 10.5477 0.579207 9.95425 1.01679 9.51667C1.45438 9.07909 2.04787 8.83325 2.66671 8.83325H5.00004C5.61888 8.83325 6.21237 9.07909 6.64996 9.51667C7.08754 9.95425 7.33337 10.5477 7.33337 11.1666V22.8333C7.33337 23.4521 7.08754 24.0456 6.64996 24.4832C6.21237 24.9208 5.61888 25.1666 5.00004 25.1666ZM2.66671 11.1666V22.8333H5.00004V11.1666H2.66671Z" fill="white"/>
<path id="Vector_3" d="M3.83338 7.66663C3.14114 7.66663 2.46445 7.46136 1.88888 7.07677C1.31331 6.69219 0.864704 6.14556 0.599797 5.50602C0.334891 4.86648 0.265579 4.16275 0.400627 3.48381C0.535675 2.80488 0.869018 2.18124 1.3585 1.69175C1.84799 1.20227 2.47163 0.868927 3.15056 0.733879C3.82949 0.598831 4.53323 0.668142 5.17277 0.933049C5.81231 1.19796 6.35893 1.64656 6.74352 2.22213C7.1281 2.7977 7.33338 3.47439 7.33338 4.16663C7.33338 5.09489 6.96463 5.98512 6.30825 6.6415C5.65187 7.29788 4.76163 7.66663 3.83338 7.66663ZM3.83338 2.99996C3.60263 2.99996 3.37707 3.06839 3.18521 3.19658C2.99335 3.32477 2.84382 3.50698 2.75552 3.72016C2.66721 3.93334 2.64411 4.16792 2.68913 4.39423C2.73414 4.62054 2.84526 4.82842 3.00842 4.99159C3.17158 5.15475 3.37946 5.26586 3.60577 5.31088C3.83208 5.35589 4.06666 5.33279 4.27984 5.24449C4.49302 5.15619 4.67523 5.00665 4.80342 4.81479C4.93162 4.62294 5.00004 4.39737 5.00004 4.16663C5.00004 3.85721 4.87713 3.56046 4.65833 3.34167C4.43954 3.12288 4.1428 2.99996 3.83338 2.99996Z" fill="white"/>
</g>
</svg>
